<?xml version="1.0" encoding="UTF-8"?>
<svg version="1.1" xmlns="http://www.w3.org/2000/svg" width="16" height="16">
<path d="M0 0 C0 1.32 0 2.64 0 4 C1.98 4 3.96 4 6 4 C6 2.68 6 1.36 6 0 C7.32 0.33 8.64 0.66 10 1 C10.79953138 4.28696233 11.09658936 5.71023192 10 9 C7.9375 9.6875 7.9375 9.6875 6 10 C6 8.68 6 7.36 6 6 C4.02 6 2.04 6 0 6 C0 7.32 0 8.64 0 10 C-1.32 9.67 -2.64 9.34 -4 9 C-4.79953138 5.71303767 -5.09658936 4.28976808 -4 1 C-2 0 -2 0 0 0 Z " fill="#000000" transform="translate(5,3)"/>
</svg>
